
<svg viewBox="0 0 1200 288" fill="none" xmlns="http://www.w3.org/2000/svg">
<path d="M106.463 284.548H0.978516V6.8358H105.696C191.234 6.8358 244.552 59.0027 244.552 145.692C244.552 232.381 191.234 284.548 106.463 284.548ZM73.8587 222.408H103.778C146.739 222.408 170.904 204.38 170.904 145.692C170.904 87.004 146.739 68.9758 101.86 68.9758H73.8587V222.408Z" fill="currentColor"/>
<path d="M300.202 284.548H221.184L313.627 6.8358H412.974L505.033 284.548H426.399L409.906 230.079H316.696L300.202 284.548ZM333.573 174.844H393.028L364.26 81.6339H361.958L333.573 174.844Z" fill="currentColor"/>
<path d="M460.569 6.8358H542.271L597.507 120.376H599.808L655.427 6.8358H737.13L635.098 195.557V284.548H562.601V195.557L460.569 6.8358Z" fill="currentColor"/>
<path d="M896.346 6.8358H969.227V185.201C969.227 248.108 921.279 288 849.933 288C778.587 288 731.023 248.108 731.023 185.201V6.8358H803.904V178.68C803.904 205.53 823.083 224.709 849.933 224.709C877.167 224.709 896.346 205.53 896.346 178.68V6.8358Z" fill="currentColor"/>
<path d="M1124.99 92.7577C1123.46 73.9623 1111.18 63.2221 1086.25 63.2221C1062.08 63.2221 1051.34 72.428 1050.96 85.4697C1050.58 99.6622 1063.62 107.717 1089.32 113.087L1112.33 118.458C1172.17 131.116 1198.64 160.268 1199.02 202.845C1198.64 257.314 1156.83 288 1086.63 288C1014.9 288 968.49 256.546 967.723 188.269H1037.53C1038.69 213.969 1056.71 227.778 1085.48 227.778C1110.41 227.778 1123.84 217.421 1124.22 202.845C1123.84 189.42 1112.72 181.748 1081.65 174.844L1053.64 168.707C1004.93 157.966 975.011 133.801 975.011 90.8398C974.627 38.2894 1021.04 3 1086.25 3C1152.99 3 1194.8 38.6729 1195.19 92.7577H1124.99Z" fill="currentColor"/>
</svg>
