<svg viewBox="0 0 50 30" fill="none" xmlns="http://www.w3.org/2000/svg">
<path fill-rule="evenodd" clip-rule="evenodd" d="M50 15C50 23.2843 43.2843 30 35 30C31.1582 30 27.6538 28.5557 25 26.1805C22.3462 28.5557 18.8418 30 15 30C6.71573 30 0 23.2843 0 15C0 6.71573 6.71573 0 15 0C18.8418 0 22.3462 1.44427 25 3.81947C27.6538 1.44427 31.1582 0 35 0C43.2843 0 50 6.71573 50 15ZM35 28.5C42.4558 28.5 48.5 22.4558 48.5 15C48.5 7.54416 42.4558 1.5 35 1.5C31.5755 1.5 28.4487 2.77511 26.0687 4.87644C28.5103 7.54454 30 11.0983 30 15C30 18.9017 28.5103 22.4555 26.0687 25.1236C28.4487 27.2249 31.5755 28.5 35 28.5Z"  fill="currentColor"/>
</svg>
